<?xml version="1.0" encoding="UTF-8"?>
<svg xmlns="http://www.w3.org/2000/svg" xmlns:xlink="http://www.w3.org/1999/xlink" width="393.66pt" height="135.18pt" viewBox="0 0 393.66 135.18" version="1.1">
<defs>
<clipPath id="clip1">
  <path d="M 0 0 L 393.660156 0 L 393.660156 135.179688 L 0 135.179688 Z M 0 0 "/>
</clipPath>
</defs>
<g id="surface1">
<g clip-path="url(#clip1)" clip-rule="nonzero">
<path style=" stroke:none;fill-rule:nonzero;fill:rgb(0%,0%,0%);fill-opacity:1;" d="M 19.542969 -0.00390625 L 374.113281 -0.00390625 C 384.90625 -0.00390625 393.65625 8.730469 393.65625 19.507813 L 393.65625 115.667969 C 393.65625 126.445313 384.90625 135.179688 374.113281 135.179688 L 19.542969 135.179688 C 8.75 135.179688 0 126.445313 0 115.667969 L 0 19.507813 C 0 8.730469 8.75 -0.00390625 19.542969 -0.00390625 "/>
</g>
<path style=" stroke:none;fill-rule:nonzero;fill:rgb(100%,100%,100%);fill-opacity:1;" d="M 19.542969 2.78125 L 374.113281 2.78125 C 383.363281 2.78125 390.863281 10.269531 390.863281 19.507813 L 390.863281 115.667969 C 390.863281 124.90625 383.363281 132.394531 374.113281 132.394531 L 19.542969 132.394531 C 10.292969 132.394531 2.792969 124.90625 2.792969 115.667969 L 2.792969 19.507813 C 2.792969 10.269531 10.292969 2.78125 19.542969 2.78125 "/>
<path style=" stroke:none;fill-rule:nonzero;fill:rgb(88.598633%,6.298828%,8.999634%);fill-opacity:1;" d="M 163.296875 41.605469 C 166.046875 41.605469 168.53125 42.742188 170.300781 44.578125 L 170.300781 23.683594 C 170.300781 18.300781 165.929688 13.929688 160.53125 13.929688 L 23.730469 13.929688 C 18.332031 13.929688 13.957031 18.300781 13.957031 23.683594 L 13.957031 111.484375 C 13.957031 116.875 18.332031 121.242188 23.730469 121.242188 L 160.53125 121.242188 C 165.929688 121.242188 170.300781 116.875 170.300781 111.484375 L 170.300781 58.097656 C 168.53125 59.925781 166.046875 61.066406 163.296875 61.066406 C 157.914063 61.066406 153.554688 56.710938 153.554688 51.335938 C 153.554688 45.960938 157.914063 41.605469 163.296875 41.605469 "/>
<path style=" stroke:none;fill-rule:nonzero;fill:rgb(100%,100%,100%);fill-opacity:1;" d="M 67.28125 98.507813 C 67.214844 100.378906 60.851563 105.863281 58.71875 105.730469 C 54.40625 106.109375 39.695313 107.097656 34.316406 107.605469 C 32.269531 109.074219 29.480469 110.886719 25.855469 113.644531 C 25.1875 114.15625 24.03125 113.902344 23.726563 112.601563 C 23.726563 112.140625 23.734375 111.730469 23.757813 111.34375 C 23.21875 111.28125 23.097656 111.15625 23.21875 110.273438 C 23.296875 109.691406 23.832031 109.8125 23.921875 109.820313 C 24.015625 109.277344 24.144531 108.714844 24.332031 108.054688 C 23.964844 107.855469 23.722656 107.757813 23.964844 107.132813 C 24.304688 106.253906 24.550781 106.402344 24.886719 106.539063 C 25.945313 104.320313 27.703125 103.007813 28.761719 100.855469 C 28.417969 100.710938 28.011719 100.679688 28.417969 99.90625 C 28.785156 99.207031 28.996094 99.496094 29.261719 99.574219 C 29.398438 99.292969 29.660156 98.851563 29.804688 98.621094 C 29.476563 98.40625 29.320313 98.304688 29.632813 97.847656 C 30.109375 97.152344 30.394531 97.53125 30.613281 97.667969 C 31.445313 96.980469 32.945313 96.765625 33.640625 97.078125 C 34.933594 97.667969 37.015625 99.582031 37.015625 99.582031 C 40.78125 98.320313 51.355469 93.601563 54.632813 95.277344 C 53.875 93.070313 53.230469 91.21875 52.734375 89.777344 C 51.941406 87.492188 51.507813 86.246094 51.507813 86.246094 L 50.425781 86.058594 C 48.21875 80.457031 44.050781 67.121094 45.863281 63.863281 C 43.53125 63.117188 43.1875 55.875 47.625 39.429688 C 50.277344 38.515625 52.9375 37.253906 52.9375 37.253906 C 49.511719 37.789063 42.332031 39.234375 42.332031 39.234375 C 38.832031 42.769531 33.964844 47.203125 33.320313 47.496094 C 32.910156 48.871094 32.71875 50.769531 32.355469 51.207031 C 31.734375 52.117188 30.742188 52.722656 29.828125 53.417969 C 26.941406 55.605469 24.722656 54.289063 24.515625 53.34375 C 24.578125 52.632813 26.632813 51.402344 27.203125 49.65625 C 26.144531 50.453125 25.21875 51.046875 24.175781 51.113281 C 23.613281 51.152344 23.25 50.054688 24.246094 49.722656 C 25.679688 48.796875 26.316406 48.613281 27.007813 47.167969 C 27.667969 45.777344 28.597656 44.765625 30.003906 44.484375 C 30.003906 44.484375 33.894531 37.589844 37.285156 32.683594 C 37.976563 31.679688 39.742188 31.625 39.742188 31.625 C 39.742188 31.625 39.746094 30.953125 39.621094 30.214844 C 41.234375 29.46875 55.648438 26.300781 60.234375 27.9375 C 62.753906 28.839844 63.65625 29.515625 66.03125 30.875 C 68.136719 25.546875 72 24.425781 74.308594 24.460938 C 76.273438 24.488281 77.523438 24.914063 79.058594 26.132813 C 81.003906 27.671875 81.53125 29.34375 81.976563 31.777344 C 82.269531 33.394531 82.617188 34.464844 81.90625 35.992188 C 81.484375 36.898438 80.449219 36.652344 79.457031 37.441406 C 77.886719 38.613281 77.359375 40.53125 76.296875 41.191406 C 75.824219 41.488281 75.703125 40.992188 74.867188 41.332031 C 73.28125 41.976563 71.96875 42.890625 70.714844 42.757813 C 70.035156 42.683594 69.65625 42.5 69.074219 42.148438 C 69.066406 44.507813 68.101563 52.3125 67.433594 54.886719 C 71.019531 54.855469 75.417969 55.652344 75.417969 55.652344 C 75.5 55.992188 75.398438 56.421875 75.664063 56.5 C 76.589844 56.753906 86.707031 58.945313 92.066406 61.8125 C 93.425781 61.769531 94.539063 61.902344 95.8125 62.375 C 96.980469 62.808594 116.84375 70.226563 122.070313 71.960938 C 124.859375 72.085938 132.179688 70.992188 134.742188 70.804688 C 135.773438 70.730469 136.941406 70.597656 137.203125 71.777344 L 136.53125 72.609375 C 136.683594 72.820313 136.859375 73.046875 136.796875 73.1875 C 136.664063 73.46875 136.378906 73.707031 136.175781 73.773438 C 136.042969 73.820313 135.890625 73.691406 135.714844 73.453125 L 134.695313 74.246094 C 134.882813 74.480469 135.050781 74.683594 134.972656 74.851563 C 134.882813 75.050781 134.296875 75.484375 134.109375 75.523438 C 133.980469 75.550781 133.851563 75.429688 133.632813 75.210938 C 133.632813 75.210938 127.675781 79.664063 126.644531 80.339844 C 126.972656 80.835938 126.910156 80.96875 126.472656 81.25 C 126.011719 81.546875 125.738281 81.375 125.429688 81.0625 L 124.949219 81.363281 C 125.113281 81.753906 125.125 81.980469 124.644531 82.230469 C 124.042969 82.542969 123.855469 82.359375 123.535156 82.019531 C 122.957031 82.285156 122.789063 82.421875 122.566406 82.296875 C 122.566406 82.296875 119.832031 81.664063 118.5625 78.253906 C 108.390625 78.1875 96.210938 76.90625 94.539063 75.503906 C 93.734375 74.609375 92.589844 74.148438 91.363281 74.226563 C 84.828125 74.679688 75.015625 73.132813 69.800781 72.570313 C 69.542969 73.445313 69.582031 73.433594 69.582031 73.433594 L 67.546875 73.324219 L 67.464844 80.976563 L 66.46875 81.292969 C 66.683594 84.949219 66.914063 87.496094 67.085938 89.777344 C 67.289063 92.570313 67.40625 94.96875 67.28125 98.507813 "/>
<path style=" stroke:none;fill-rule:nonzero;fill:rgb(0%,0%,0%);fill-opacity:1;" d="M 196.3125 55.257813 L 178.679688 55.257813 L 178.679688 121.261719 L 221.414063 121.261719 L 221.414063 105.945313 L 196.3125 105.945313 "/>
<path style=" stroke:none;fill-rule:nonzero;fill:rgb(0%,0%,0%);fill-opacity:1;" d="M 229.191406 121.261719 L 246.820313 121.261719 L 246.820313 55.257813 L 229.191406 55.257813 Z M 229.191406 121.261719 "/>
<path style=" stroke:none;fill-rule:nonzero;fill:rgb(0%,0%,0%);fill-opacity:1;" d="M 315.480469 76.203125 C 315.480469 55.257813 303.3125 55.167969 286.210938 55.167969 C 266.820313 55.167969 254.828125 58.425781 254.828125 80.25 L 254.828125 97.320313 C 254.828125 118.710938 265.410156 122.226563 286.210938 122.226563 C 309.835938 122.226563 315.480469 118.179688 315.480469 95.914063 L 315.480469 84.386719 L 285.417969 84.386719 L 285.417969 96.617188 L 297.582031 96.617188 C 297.582031 105.769531 295.203125 107.792969 286.210938 107.792969 C 277.042969 107.792969 272.992188 106.5625 272.992188 94.855469 L 272.992188 84.121094 C 273.167969 73.472656 273.515625 69.601563 286.210938 69.601563 C 291.5 69.601563 297.230469 69.515625 297.582031 76.203125 L 315.480469 76.203125 "/>
<path style=" stroke:none;fill-rule:nonzero;fill:rgb(0%,0%,0%);fill-opacity:1;" d="M 362.078125 109.910156 L 365.515625 121.261719 L 383.496094 121.261719 L 363.398438 55.257813 L 336.597656 55.257813 L 316.765625 121.261719 L 335.101563 121.261719 L 338.363281 109.910156 Z M 358.546875 97.058594 L 342.152344 97.058594 L 350.179688 68.457031 L 350.347656 68.457031 Z M 358.546875 97.058594 "/>
<path style=" stroke:none;fill-rule:nonzero;fill:rgb(0%,0%,0%);fill-opacity:1;" d="M 178.679688 47.859375 L 196.671875 47.859375 C 203.859375 47.859375 207.742188 46.730469 207.742188 38.429688 C 207.742188 34.183594 206.886719 31.164063 201.871094 30.847656 L 201.871094 30.480469 C 206.34375 29.765625 207.203125 26.964844 207.203125 22.683594 C 207.203125 15.277344 203.226563 14.011719 196.492188 14.011719 L 178.679688 14.011719 Z M 187.71875 21.414063 L 195.316406 21.414063 C 197.847656 21.503906 198.160156 22.269531 198.160156 24.300781 C 198.160156 27.011719 197.394531 27.554688 194.230469 27.554688 L 187.71875 27.554688 Z M 187.71875 33.824219 L 194.726563 33.824219 C 197.664063 33.824219 198.703125 34.226563 198.703125 37.027344 C 198.703125 39.78125 197.484375 40.460938 194.546875 40.460938 L 187.71875 40.460938 L 187.71875 33.824219 "/>
<path style=" stroke:none;fill-rule:nonzero;fill:rgb(0%,0%,0%);fill-opacity:1;" d="M 232.320313 13.933594 L 232.320313 35.910156 C 232.320313 39.882813 231.011719 40.199219 227.167969 40.199219 C 223.371094 40.199219 221.199219 40.152344 221.199219 36.316406 L 221.199219 13.933594 L 212.160156 13.933594 L 212.160156 36.496094 C 212.160156 44.621094 213.605469 48.050781 227.167969 48.050781 C 237.113281 48.050781 241.359375 45.523438 241.359375 36.496094 L 241.359375 13.933594 L 232.320313 13.933594 "/>
<path style=" stroke:none;fill-rule:nonzero;fill:rgb(0%,0%,0%);fill-opacity:1;" d="M 255.414063 21.839844 L 255.773438 21.839844 L 265.359375 47.832031 L 280.769531 47.832031 L 280.769531 13.984375 L 271.730469 13.984375 L 272.273438 39.980469 L 271.914063 39.980469 L 262.195313 13.984375 L 246.914063 13.984375 L 246.914063 47.832031 L 255.957031 47.832031 "/>
<path style=" stroke:none;fill-rule:nonzero;fill:rgb(0%,0%,0%);fill-opacity:1;" d="M 286.019531 47.804688 L 304.414063 47.804688 C 313.863281 47.804688 316.847656 43.429688 316.847656 34.175781 L 316.847656 27.089844 C 316.847656 17.476563 312.644531 13.960938 303.195313 13.960938 L 286.019531 13.960938 Z M 295.058594 21.8125 L 302.972656 21.8125 C 306.132813 21.8125 307.535156 22.714844 307.535156 27.089844 L 307.535156 34.175781 C 307.535156 37.742188 306.316406 39.953125 302.972656 39.953125 L 295.058594 39.953125 L 295.058594 21.8125 "/>
<path style=" stroke:none;fill-rule:nonzero;fill:rgb(0%,0%,0%);fill-opacity:1;" d="M 330.84375 21.332031 L 346.261719 21.332031 L 346.261719 13.933594 L 321.808594 13.933594 L 321.808594 47.777344 L 346.574219 47.777344 L 346.574219 40.378906 L 330.84375 40.378906 L 330.84375 33.792969 L 345.3125 33.792969 L 345.3125 27.511719 L 330.84375 27.511719 "/>
<path style=" stroke:none;fill-rule:nonzero;fill:rgb(0%,0%,0%);fill-opacity:1;" d="M 364.378906 27.035156 C 361.984375 26.855469 360.671875 26.769531 360.671875 24.054688 C 360.671875 22.160156 361.078125 21.171875 365.960938 21.171875 C 369.578125 21.171875 371.023438 21.171875 371.023438 24.644531 L 379.703125 24.644531 L 379.703125 23.246094 C 379.703125 13.902344 373.375 13.769531 365.960938 13.769531 C 357.101563 13.769531 351.628906 14.402344 351.628906 24.101563 C 351.628906 33.808594 356.515625 33.757813 364.875 34.347656 L 366.863281 34.484375 C 371.113281 34.757813 371.609375 34.707031 371.609375 37.640625 C 371.609375 40.484375 370.210938 40.757813 365.960938 40.757813 C 361.53125 40.757813 360.269531 40.398438 360.269531 36.875 L 351.585938 36.875 C 351.585938 47.976563 357.328125 48.15625 365.960938 48.15625 C 380.878906 48.15625 380.652344 42.652344 380.652344 37.054688 C 380.652344 29.292969 378.164063 28.027344 368.128906 27.308594 L 364.378906 27.035156 "/>
</g>
</svg>
