<?xml version="1.0" encoding="UTF-8"?>
<!DOCTYPE svg  PUBLIC '-//W3C//DTD SVG 1.1//EN'  'http://www.w3.org/Graphics/SVG/1.1/DTD/svg11.dtd'>
<svg width="830pt" height="1168pt" version="1.1" viewBox="0 0 830 1168" xmlns="http://www.w3.org/2000/svg">
<path d="m300.95 351.66c16.78-24.91 42.45-43.74 71.41-51.83-5.15 3.55-9.46 8.08-13.74 12.58 14.9-1.93 30.38-0.19 44.19 5.88 1.78 13.15 2.74 26.42 4.83 39.52 1.71-13.16 3.01-26.37 4.64-39.54 13.48-5.84 28.61-7.9 43.15-5.84l0.98 0.78c0.03-0.23 0.09-0.68 0.12-0.9-4.49-4.3-8.66-8.98-13.85-12.47 28.92 8.11 54.59 26.88 71.35 51.78-4.92-3.78-10.54-6.43-16.1-9.09 6.4 13.47 9.64 28.63 8.09 43.54-12.13 5.64-24.46 10.88-36.45 16.82 13.1-2.35 26.1-5.24 39.15-7.8 10.21 11.22 16.59 25.51 19.49 40.31 2.87-5.24 5.71-10.53 7.5-16.25 1.01 29.35-8.59 58.9-26.64 82.05 1.64-5.56 2.51-11.29 3.28-17.01-10.87 10.26-24.32 17.94-38.98 21.18-9.24-9.87-18.12-20.09-27.58-29.75 6.37 11.86 13.21 23.46 19.77 35.21-7.6 13.1-19.17 23.65-32.44 30.84 5.69 1.03 11.42 1.96 17.22 2.13-27.47 9.79-58.29 9.76-85.76-0.03 5.84-0.12 11.61-1.07 17.35-2.1-13.27-7.19-24.84-17.74-32.44-30.85 6.54-11.74 13.42-23.31 19.73-35.17-9.48 9.66-18.3 19.96-27.66 29.74-14.58-3.35-28.04-10.91-38.84-21.21 0.75 5.77 1.6 11.54 3.28 17.13-18.06-23.2-27.71-52.76-26.71-82.16 1.87 5.75 4.72 11.08 7.6 16.37 2.72-14.89 9.27-29.19 19.45-40.46 13.06 2.55 26.06 5.44 39.16 7.8-11.98-5.97-24.34-11.18-36.47-16.84-1.53-14.88 1.68-30.03 8.09-43.48-5.6 2.64-11.23 5.34-16.17 9.12m106.57 12.11c-18.76 13.65-37.55 27.27-56.33 40.89 7.15 22.1 14.36 44.17 21.54 66.26 23.24-0.05 46.48 0.08 69.72-0.07 7.05-22.11 14.41-44.12 21.44-66.24-18.83-13.56-37.56-27.26-56.37-40.84z" fill="#fff"/>
<path d="m372.22 0h2.76c1.54 1.34 2.99 2.9 3.14 5.06 10.15 54.62 20.38 109.23 30.5 163.86 0.89 2.75-0.69 6.02-3.69 6.39-20.61 3.7-40.69 10.56-59.04 20.69-30.58 16.73-56.54 41.93-73.79 72.25-1.09 1.92-2.54 4.13-5.05 4.05-3.34-0.66-6.07-2.85-8.99-4.44-46.17-26.83-92.35-53.63-138.54-80.43-1.95-1.07-3.91-2.99-3.34-5.44 1.14-3.47 3.43-6.4 5.19-9.55 35.92-59.65 89.28-108.49 151.62-139.42 31.3-15.64 64.85-26.6 99.23-33.02z" fill="#951b80"/>
<path d="m465.17 41.29c50.91-1.33 102.06 8.09 149.22 27.3 36.3 14.8 70.25 35.37 100.13 60.75 1.67 1.46 3.51 2.78 4.92 4.52 1.29 2.11 0.53 4.8-1.16 6.44-36.38 41.95-72.76 83.9-109.12 125.86-1.13 1.21-2.41 2.62-4.21 2.57-2.29 0.15-3.87-1.76-5.5-3.04-41.23-35.91-98.5-52.5-152.54-44.13-2.05 0.2-4.42 0.99-6.2-0.44-1.48-0.86-1.9-2.64-2.12-4.21-7.79-52.6-15.56-105.21-23.35-157.81-0.4-3.03-1.07-6.04-1.2-9.1-0.08-2.29 1.9-4.19 4.1-4.44 15.56-2.47 31.28-3.83 47.03-4.27z" fill="#e40613"/>
<path d="m54.4 186.35c1.88-1.13 4.05-0.5 5.82 0.51 49.21 26.43 98.49 52.75 147.69 79.21 3.13 1.43 3.1 5.49 1.22 7.95-26.46 48.13-30.35 107.94-10.3 159.08 0.67 2.15 2.17 4.5 0.94 6.73-1.17 2.29-3.99 2.73-6.13 3.71-51.13 19.61-102.21 39.34-153.33 58.97-2.15 0.98-5.04 0.82-6.39-1.35-1.69-3.26-2.73-6.82-4.07-10.24-27.22-74.22-29.36-157.24-6.38-232.85 7.11-23.66 16.67-46.57 28.32-68.35 0.71-1.22 1.36-2.6 2.61-3.37z" fill="#01509f"/>
<path d="m707.41 195.54c1.91-1.17 4.27-0.29 5.74 1.18 43.12 40.15 76.13 90.96 95.72 146.5 13.04 36.68 19.97 75.43 21.13 114.32v19.85c-0.25 3.47-0.19 6.99-0.87 10.42-0.87 2.53-3.76 3.14-6.12 2.9-55.7-2.76-111.42-5.34-167.12-8.15-3.43 0.11-5.26-3.47-4.63-6.51 3.22-54.64-18.81-110.13-58.62-147.68-1.58-1.6-3.57-3.07-4.22-5.32-0.38-2.11 1.1-3.81 2.41-5.25 36.86-38.79 73.7-77.61 110.54-116.42 1.96-1.99 3.71-4.26 6.04-5.84z" fill="#f28800"/>
<g fill="#1d1d1b">
<path d="m389.65 284.84c39.91-5.35 81.81 7.73 111.48 34.97 26.13 23.46 42.8 57.13 45.42 92.17 2.96 35.25-8.29 71.41-30.72 98.76-22.51 27.91-56.12 46.54-91.76 50.62-39.05 4.86-79.86-7.86-109.13-34.18-26.47-23.28-43.51-56.95-46.4-92.1-2.79-31.06 5.32-62.96 22.64-88.9 21.94-33.39 58.79-56.48 98.47-61.34m-88.7 66.82c4.94-3.78 10.57-6.48 16.17-9.12-6.41 13.45-9.62 28.6-8.09 43.48 12.13 5.66 24.49 10.87 36.47 16.84-13.1-2.36-26.1-5.25-39.16-7.8-10.18 11.27-16.73 25.57-19.45 40.46-2.88-5.29-5.73-10.62-7.6-16.37-1 29.4 8.65 58.96 26.71 82.16-1.68-5.59-2.53-11.36-3.28-17.13 10.8 10.3 24.26 17.86 38.84 21.21 9.36-9.78 18.18-20.08 27.66-29.74-6.31 11.86-13.19 23.43-19.73 35.17 7.6 13.11 19.17 23.66 32.44 30.85-5.74 1.03-11.51 1.98-17.35 2.1 27.47 9.79 58.29 9.82 85.76 0.03-5.8-0.17-11.53-1.1-17.22-2.13 13.27-7.19 24.84-17.74 32.44-30.84-6.56-11.75-13.4-23.35-19.77-35.21 9.46 9.66 18.34 19.88 27.58 29.75 14.66-3.24 28.11-10.92 38.98-21.18-0.77 5.72-1.64 11.45-3.28 17.01 18.05-23.15 27.65-52.7 26.64-82.05-1.79 5.72-4.63 11.01-7.5 16.25-2.9-14.8-9.28-29.09-19.49-40.31-13.05 2.56-26.05 5.45-39.15 7.8 11.99-5.94 24.32-11.18 36.45-16.82 1.55-14.91-1.69-30.07-8.09-43.54 5.56 2.66 11.18 5.31 16.1 9.09-16.76-24.9-42.43-43.67-71.35-51.78 5.19 3.49 9.36 8.17 13.85 12.47-0.03 0.22-0.09 0.67-0.12 0.9l-0.98-0.78c-14.54-2.06-29.67 0-43.15 5.84-1.63 13.17-2.93 26.38-4.64 39.54-2.09-13.1-3.05-26.37-4.83-39.52-13.81-6.07-29.29-7.81-44.19-5.88 4.28-4.5 8.59-9.03 13.74-12.58-28.96 8.09-54.63 26.92-71.41 51.83z"/>
<path d="m407.52 363.77c18.81 13.58 37.54 27.28 56.37 40.84-7.03 22.12-14.39 44.13-21.44 66.24-23.24 0.15-46.48 0.02-69.72 0.07-7.18-22.09-14.39-44.16-21.54-66.26 18.78-13.62 37.57-27.24 56.33-40.89z"/>
<path d="m449.39 900.56c7.46-1.65 15.6-0.22 21.89 4.18 8.12 5.47 12.77 15.6 11.53 25.33-1.08 11.25-9.79 21.23-20.77 23.85-9.56 2.58-20.46-0.51-26.94-8.06-7.87-8.78-9.05-22.69-2.87-32.71 3.72-6.28 10.04-10.96 17.16-12.59z"/>
<path d="m2.75 928.38c16.21-0.02 32.42-0.01 48.63 0-0.01 48.14 0.01 96.28 0 144.43 19.6 0.01 39.2-0.01 58.8 0.01 0 14.18 0.05 28.37-0.02 42.55-35.8 0.01-71.59 0.01-107.38 0-0.07-62.33-0.01-124.66-0.03-186.99z"/>
<path d="m305.06 928.36c16.21 0.02 32.42 0.01 48.63 0.01 0.01 48.15 0 96.29 0.01 144.44 19.6 0.06 39.21-0.12 58.82 0.09-0.04 14.14 0 28.28-0.02 42.42-35.81-0.01-71.63-0.01-107.44-0.01 0-62.31-0.01-124.63 0-186.95z"/>
<path d="m149.99 975.99c12.01-8.95 27.01-13.78 41.99-13.42 8.96 0.08 17.99 2.09 25.83 6.5 5.77 3.14 10.86 7.34 15.75 11.68-0.01-5.09 0-10.17 0-15.25 14.94-0.01 29.88-0.01 44.82 0-0.01 49.94 0.01 99.87-0.01 149.81-15.16 0.01-30.32 0-45.48 0-0.02-4.82-0.03-9.64 0-14.45-12.09 11.84-29.01 18.54-45.93 18.14-15.68-0.13-31.61-5.08-43.62-15.37-11.82-9.9-19.32-24.19-22.66-39.09-2.75-12.59-3.41-25.74-1.16-38.45 3.53-19.67 14.31-38.19 30.47-50.1m40.55 29.61c-7.39 1.71-14.22 5.92-18.86 11.95-9.03 11.62-9.57 28.28-3.55 41.39 4.1 9.13 12.47 16.34 22.34 18.42 15.07 3.33 32.21-3.46 39.79-17.16 8.8-15.49 5.36-37.49-9.04-48.46-8.56-6.66-20.23-8.56-30.68-6.14z"/>
<path d="m531.68 970.67c13.93-8.23 31.12-9.97 46.74-6.32 11.24 2.59 20.88 9.59 28.7 17.86-0.01-5.57-0.01-11.15 0.01-16.72 14.43 0.01 28.87-0.01 43.31 0.01 0.01 38.14 0 76.28 0 114.43-0.17 10.31 0.59 20.7-1.05 30.93-2.29 15.22-9.95 29.7-21.87 39.55-13.6 11.46-31.45 16.7-48.99 17.59h-9.13c-14.96-0.77-30.07-4.41-42.84-12.48-14.07-8.57-24.22-23.36-26.41-39.77 16.93 0 33.86-0.02 50.79 0.01 2.19 3.13 4.45 6.36 7.69 8.51 5.35 3.65 12.16 3.78 18.41 3.64 9.12-0.45 19.13-3.45 24.55-11.32 4.74-6.83 3.53-15.55 3.43-23.37-9.11 7.65-19.89 13.49-31.56 16.02-13 2.7-26.86 0.8-38.79-4.95-16.09-7.73-27.79-22.86-33.19-39.66-6.02-18.67-5.57-39.35 1.08-57.79 5.35-14.81 15.4-28.2 29.12-36.17m31.79 32.03c-9.85 2.71-17.21 11.23-20.08 20.83-4.03 13.1-2.44 28.75 6.85 39.3 9.02 10.27 24.84 11.84 36.94 6.59 7.37-3.18 13.34-9.27 16.68-16.53 4.72-9.99 4.38-21.9 0.38-32.06-3.03-7.71-9.31-14.08-17.1-16.97-7.51-2.76-15.94-3.28-23.67-1.16z"/>
<path d="m702.44 975.41c15.62-11.36 36.21-15.58 55.01-11.11 10.68 2.59 19.78 9.2 27.8 16.47-0.01-5.1-0.01-10.19 0-15.28 14.91 0 29.83 0 44.75 0.01v149.82c-15.17-0.01-30.34 0-45.5-0.01 0-4.81-0.02-9.61 0.01-14.41-5.35 5.14-11.53 9.42-18.32 12.44-17.58 8-38.47 7.25-56.07-0.26-16.16-6.91-28.54-21.13-34.5-37.52-5.86-16.08-7.33-33.8-4.23-50.62 3.75-19.57 14.77-37.88 31.05-49.53m39.12 30.35c-6.4 1.6-12.33 5.07-16.73 10-10.11 11.22-11.32 28.38-5.59 41.95 3.55 8.62 10.69 15.84 19.63 18.75 14.92 4.88 32.88-0.83 41.64-14.03 10.34-15.29 7.56-38.43-6.95-50.15-8.79-7.22-21.11-9.25-32-6.52z"/>
<path d="m432.62 965.5c15.09-0.01 30.17-0.01 45.26 0v149.81c-15.08 0-30.17 0.01-45.25 0-0.02-49.94 0-99.87-0.01-149.81z"/>
</g>
<path d="m157.35 481.31c3.18-1.86 6.69 0.45 7.53 3.72 21.57 51.16 66.79 91.57 120.01 107.37 3.21 0.48 5.72 3.61 4.36 6.83-16.58 53.34-33.25 106.66-49.89 159.97-0.57 3.31-4.2 4.97-7.18 3.57-42.09-12.83-81.82-33.33-116.7-60.16-50.53-38.67-90.79-90.66-115.48-149.3v-2.3c1.01-1.68 2.52-2.97 4.37-3.65 51.02-21.95 101.96-44.11 152.98-66.05z" fill="#0090d7"/>
<path d="m601.31 502.38c1.24-0.23 2.5-0.27 3.78-0.13 55.34 4.38 110.69 8.63 166.03 12.97 3.07-0.12 5.57 2.7 4.94 5.76-4.98 72.36-32.33 142.87-76.92 200.02-21.33 27.46-46.57 51.87-74.72 72.27-2.21 1.96-5.77 1.23-7.26-1.22-31.79-43.27-63.56-86.56-95.33-129.85-1.78-2.69-4.39-5.02-5.17-8.22-0.46-2.93 2.31-4.56 4.3-6.04 43.95-31.97 72.77-83.65 76.91-137.83 0.17-2.82 0.09-6.75 3.44-7.73z" fill="#feed01"/>
<path d="m463.45 622.56c2.5-1.22 5.13 0.59 6.31 2.78 31.05 46.3 62.22 92.52 93.25 138.83 2.65 3.29-0.23 7.17-3.46 8.55-70.54 47.52-157.83 69.23-242.41 60.69-21.55-2.14-42.92-6.12-63.76-11.99-2.84-0.54-4.44-3.76-3.39-6.39 14.82-53.89 29.75-107.75 44.61-161.62 0.53-3.4 4.35-4.99 7.33-3.55 41.35 11.83 86.64 8.85 126.2-7.96 12.46-5.11 24.07-12.01 35.32-19.34z" fill="#00963f"/>
</svg>
