<?xml version="1.0" encoding="utf-8"?>
<!-- Generator: Adobe Illustrator 19.2.1, SVG Export Plug-In . SVG Version: 6.00 Build 0)  -->
<svg version="1.1" id="layer" xmlns="http://www.w3.org/2000/svg" xmlns:xlink="http://www.w3.org/1999/xlink" x="0px" y="0px"
	 viewBox="0 0 652 652" style="enable-background:new 0 0 652 652;" xml:space="preserve">
<style type="text/css">
	.st0{fill:#360C3A;}
</style>
<path class="st0" d="M59.9,216c11.4,5.1,18.3,11.4,18.8,13.1c-0.6-2.9-2.3-16.6-4-25.1c6.3,4.6,21.1,14.8,26.8,18.3
	c2.3-6.3,9.1-26.8,9.1-26.8s13.1,20.6,14.8,23.4c2.3-2.3,17.7-18.8,21.1-23.4c0.6,9.7,1.7,23.4,2.3,25.7c0.6-1.7,6.3-9.7,16-16
	c-4.6,8.6-6.3,18.8-6.9,29.1c-9.7-2.3-18.8-4.6-30.3-4.6c-20,0-38.8,5.1-54.8,14.8C70.2,234.3,65.6,223.4,59.9,216z M212.4,391.3
	l-9.1-10.3c-2.3,26.8-14.8,48.5-39.4,64.5l-4-14.8c-20,14.8-54.8,23.4-83.9,6.9c4-18.8,6.9-38.2,0-61.1c-16,25.7-31.4,36-31.4,36
	c-10.8-18.8-10.3-55.9-6.3-66.8l-17.7,6.9c0-13.1,9.1-39.4,22.3-54.2l-11.4-2.3c7.4-15.4,18.8-29.7,34.3-40.5
	c-4.6,6.9-4.6,23.4,8.6,29.7c-5.1-9.7-6.3-20.6-0.6-27.4c6.3-6.3,14.8-4,20.6,0.6c-2.3-5.1-6.9-12-14.8-12c14.8-7.4,31.4-12,48.5-12
	c2.9,0,6.3,0,10.3,0.6c5.1,2.3,13.1,9.7,16,14.3c0,0,0-5.1-2.3-12c18.8,4.6,28,13.1,32,16c0.6,8.6,2.9,13.7,6.3,21.1
	c-6.3-6.9-22.3-18.3-29.7-20.6c0,0-0.6,6.9-2.9,10.8c-14.8-10.8-22.3-13.7-22.3-13.7c-16,2.3-27.4,9.1-32.5,14.3l5.1,4.6
	c-10.3,2.9-16,11.4-16,11.4l9.1,1.7c0,0-0.6,10.3,12,16c10.8,6.3,27.4-1.7,41.7,4.6c-10.3-11.4-16-16-16-16s-4-0.6-6.9-0.6
	c-2.9,0-8.6,0.6-14.3-1.7c-2.3-1.7-6.3-2.9-8.6-4.6c0,0,6.9-6.9,16.6-9.1c0,0,9.1,2.3,16,7.4c5.1-4.6,9.7-4.6,9.7-4.6
	s-5.1,4.6-2.9,10.3c6.9,6.3,14.8,15.4,14.8,15.4c8.6-4.6,25.1-2.9,28,0.6c-4.6-6.3-10.8-10.8-15.4-14.8c-0.6-2.3-6.3-9.7-6.9-10.8
	c0,0,5.1,2.3,10.3,6.3c1.7-2.3,4-4,6.9-4.6c4,2.9,4.6,7.4,4,8.6c-2.3,2.3-2.9,2.3-2.9,2.3l8.6,9.1l0.6-6.3
	C215.2,318.8,226.1,350.7,212.4,391.3z M175.8,331.3v-14.8c0,0-6.3-2.3-13.7-7.4c-14.3,2.3-30.3,15.4-30.3,15.4s6.3,10.8,12,22.3
	C155.3,348.4,170.7,335.9,175.8,331.3z M189.5,357c0,0-1.7-6.3-6.3-11.4h-10.8c0,0-14.8,13.1-23.4,13.1c0,0,5.1,9.1,7.4,14.3
	c5.1-1.7,13.7-5.1,16.6-9.1c0,0,2.3,7.4,2.3,15.4C181,376.4,187.2,369.6,189.5,357z M194.1,310.2c-6.3,4.6-10.3,6.9-10.3,6.9v14.8
	c4,4.6,7.4,7.4,10.8,14.8C200.4,336.5,199.2,322.8,194.1,310.2z M251.8,322.8v-84.5h27.4c17.7,0,30.3,10.3,30.3,28
	c0,17.7-13.1,28-30.3,28h-10.3v27.4C269.5,322.8,251.8,322.8,251.8,322.8z M268.9,279.4h9.7c8.6,0,14.8-4.6,14.8-13.1
	c0-8.6-6.3-13.1-14.8-13.1h-9.7C268.9,253.1,268.9,279.4,268.9,279.4z M529.8,415.2c-12,0-27.4-6.9-27.4-27.4v-29.7h14.8v28
	c0,9.7,4.6,14.3,12,14.3c6.9,0,12-5.1,12-14.3v-28H556v29.7C556.6,407.8,541.8,415.2,529.8,415.2 M396.8,415.2
	c-14.8,0-27.4-13.7-27.4-29.1s13.1-28,27.4-28c8.6,0,14.3,2.9,16.6,8.6l2.3-7.4h13.7v55.4h-13.7l-1.7-8
	C411,411.2,404.8,415.2,396.8,415.2 M400.2,371.3c-8.6,0-14.8,6.3-14.8,14.8c0,8.6,6.3,14.8,14.8,14.8s14.8-6.3,14.8-14.8
	C415,377.6,408.8,371.3,400.2,371.3 M501.2,266.2h14.8v55.4h-14.8C501.2,321.6,501.2,266.2,501.2,266.2z M509.8,258.8
	c-6.3,0-9.7-4.6-9.7-9.7c0-6.3,4.6-9.7,9.7-9.7c6.3,0,9.7,4.6,9.7,9.7C518.9,254.8,514.9,258.8,509.8,258.8 M477.8,289.6
	c0-6.3-2.9-9.7-9.1-9.7s-9.1,4-9.1,10.3v32.5h-14.8v-33.7c0-6.3-2.9-9.7-9.1-9.7s-9.1,4-9.1,10.3v32.5h-14.8v-55.4h13.7l2.3,7.4
	c0,0,2.9-9.1,14.3-9.1c6.3,0,12,2.3,15.4,8.6l0.6,0.6l0.6-0.6c6.3-7.4,12-8.6,16-8.6c12,0,20,9.1,20,21.1v36h-14.8v-33.7
	C480.1,289.6,477.8,289.6,477.8,289.6z M585.7,322.8v-55.4h13.7l2.3,8.6c2.3-5.1,7.4-9.1,14.3-9.1c1.7,0,2.9,0,4.6,0.6v14.8
	c-2.3-0.6-4-0.6-6.3-0.6c-7.4,0-13.1,4.6-13.1,13.7v27.4H585.7z M314.6,322.8v-55.4h13.7l2.3,8.6c2.3-5.1,7.4-9.1,14.3-9.1
	c1.7,0,2.9,0,4.6,0.6v14.8c-2.9-1.1-4.6-1.1-6.9-1.1c-7.4,0-13.1,4.6-13.1,13.7v27.4C329.4,322.2,314.6,322.8,314.6,322.8z
	 M251.8,414.1v-82.8h16v66.8h36v15.4C303.7,413.5,251.8,414.1,251.8,414.1z M336.8,415.2c-16.6,0-29.7-12-29.7-29.1
	c0-15.4,11.4-29.7,29.7-29.7c13.7,0,27.4,10.3,27.4,29.1c0,1.7,0,2.9-0.6,6.3h-40.5c1.7,6.3,6.9,10.3,14.3,10.3
	c6.3,0,10.8-2.3,14.8-6.3l9.7,9.7C355.7,411.2,346.5,415.2,336.8,415.2 M336.2,369.6c-6.3,0-12,4-13.7,9.7h25.7
	C347.7,374.1,342.5,369.6,336.2,369.6 M592,415.2c-16.6,0-29.7-12-29.7-29.1c0-15.4,11.4-29.7,29.7-29.7c13.7,0,27.4,10.3,27.4,29.1
	c0,1.7,0,2.9-0.6,6.3h-41.1c1.7,6.3,6.9,10.3,14.3,10.3c6.3,0,10.8-2.3,14.8-6.3l9.7,9.7C610.3,411.2,601.7,415.2,592,415.2
	 M591.4,369.6c-6.3,0-12,4-13.7,9.7h25.7C602.9,374.1,598.3,369.6,591.4,369.6 M552.6,323.3c-16.6,0-29.7-12-29.7-29.1
	c0-15.4,11.4-29.7,29.7-29.7c13.7,0,27.4,10.3,27.4,29.1c0,1.7,0,2.9-0.6,6.3h-41.1c1.7,6.3,6.9,10.3,14.3,10.3
	c6.3,0,10.8-2.3,14.8-6.3l9.7,9.7C570.9,319.3,561.7,323.3,552.6,323.3 M551.5,278.2c-6.3,0-12,4-13.7,9.7h25.7
	C562.9,282.8,557.8,278.2,551.5,278.2 M379.1,323.3c-16.6,0-29.7-12-29.7-29.1c0-15.4,11.4-29.7,29.7-29.7
	c13.7,0,27.4,10.3,27.4,29.1c0,1.7,0,2.9-0.6,6.3h-41.1c1.7,6.3,6.9,10.3,14.3,10.3c6.3,0,10.8-2.3,14.8-6.3l9.7,9.7
	C396.8,319.3,388.8,323.3,379.1,323.3 M378.5,278.2c-6.3,0-12,4-13.7,9.7h25.7C389.9,282.8,384.2,278.2,378.5,278.2 M465.8,371.3
	c-8.6,0-14.8,6.3-14.8,14.8c0,8.6,6.3,14.8,14.8,14.8s14.8-6.3,14.8-14.8C480.7,377.6,474.4,371.3,465.8,371.3 M480.1,365l2.3-6.9
	h13.7v52.5c0,10.3-2.9,17.7-9.7,23.4c-5.1,4-12,6.9-20.6,6.9c-11.4,0-20-4-26.8-10.3l9.1-12c4.6,4,9.7,7.4,16.6,7.4
	c11.4,0,16-6.3,16-14.3v-4c-4.6,5.1-10.3,6.9-15.4,6.9c-15.4,0-28-13.1-28-29.1s13.1-28,28-28C471,357,476.7,360.4,480.1,365"/>
</svg>
